<?xml version="1.0" encoding="UTF-8"?>
<svg xmlns="http://www.w3.org/2000/svg" xmlns:xlink="http://www.w3.org/1999/xlink" width="32px" height="32px" viewBox="0 0 32 32" version="1.1">
<g id="surface1">
<path style=" stroke:none;fill-rule:nonzero;fill:rgb(46.666667%,25.882353%,80%);fill-opacity:1;" d="M 24.167969 3.960938 C 24.148438 3.960938 24.136719 3.960938 24.117188 3.960938 C 23.996094 3.960938 23.871094 3.960938 23.746094 3.96875 C 22.453125 3.988281 21.195312 4.277344 20.007812 4.773438 C 18.734375 5.3125 17.863281 6.113281 16.730469 6.832031 C 16.515625 6.96875 16.257812 7.035156 16 7.035156 C 15.738281 7.035156 15.480469 6.96875 15.265625 6.832031 C 14.136719 6.113281 13.261719 5.3125 11.988281 4.773438 C 10.800781 4.277344 9.546875 3.988281 8.25 3.96875 C 8.128906 3.960938 8.003906 3.960938 7.882812 3.960938 C 7.863281 3.960938 7.851562 3.960938 7.832031 3.960938 C 4.550781 3.960938 2.160156 5.847656 0.757812 9.125 C 0.15625 10.519531 0.148438 12.621094 0.390625 14.085938 C 0.636719 15.546875 1.246094 16.863281 2.074219 18.09375 C 4.828125 22.199219 9.75 24.105469 13.296875 27.414062 C 13.675781 27.765625 14.050781 28.148438 14.433594 28.503906 C 14.84375 28.878906 15.339844 29.75 16 29.789062 C 16.65625 29.75 17.15625 28.882812 17.566406 28.503906 C 17.949219 28.148438 18.324219 27.765625 18.703125 27.414062 C 22.25 24.105469 27.167969 22.199219 29.925781 18.09375 C 30.753906 16.863281 31.359375 15.546875 31.605469 14.085938 C 31.851562 12.621094 31.839844 10.519531 31.238281 9.128906 C 29.835938 5.847656 27.449219 3.960938 24.167969 3.960938 Z M 24.167969 3.960938 "/>
</g>
</svg>
