<?xml version="1.0" standalone="no"?>
<!DOCTYPE svg PUBLIC "-//W3C//DTD SVG 20010904//EN"
 "http://www.w3.org/TR/2001/REC-SVG-20010904/DTD/svg10.dtd">
<svg version="1.0" xmlns="http://www.w3.org/2000/svg"
 width="500.000000pt" height="500.000000pt" viewBox="0 0 500.000000 500.000000"
 preserveAspectRatio="xMidYMid meet">
<metadata>
Created by potrace 1.11, written by Peter Selinger 2001-2013
</metadata>
<g transform="translate(0.000000,500.000000) scale(0.100000,-0.100000)"
fill="#000000" stroke="none">
<path d="M620 2495 l0 -2495 1890 0 1890 0 0 2495 0 2495 -1890 0 -1890 0 0
-2495z m3680 -10 l0 -2405 -1790 0 -1790 0 0 2405 0 2405 1790 0 1790 0 0
-2405z"/>
<path d="M2458 4024 c-2 -1 -31 -5 -66 -8 -233 -23 -506 -148 -685 -313 -209
-193 -379 -506 -433 -800 -2 -13 -7 -35 -11 -50 -3 -16 -7 -188 -9 -383 -2
-385 5 -475 51 -625 34 -111 80 -203 160 -320 38 -55 73 -105 79 -111 6 -6 24
-27 39 -47 95 -121 234 -260 316 -315 108 -74 322 -164 451 -191 149 -31 180
-34 315 -34 348 1 676 146 945 416 173 174 207 249 143 319 -19 21 -72 33
-103 23 -11 -4 -87 -73 -168 -154 -241 -241 -404 -332 -672 -375 -80 -13 -230
-14 -320 -2 -79 10 -216 50 -296 86 -330 148 -627 508 -693 840 -6 30 -14 69
-17 85 -11 47 -14 674 -4 735 18 110 22 126 50 205 51 148 151 324 261 460
103 128 224 212 402 279 107 40 210 56 367 58 189 1 328 -28 480 -100 62 -30
156 -87 177 -108 8 -8 18 -14 23 -14 5 0 42 -33 82 -73 79 -78 141 -186 152
-262 14 -93 28 -144 45 -159 51 -46 132 -34 162 24 18 32 19 63 19 393 0 391
-3 413 -57 440 -36 19 -84 15 -116 -9 -32 -23 -44 -74 -45 -177 0 -44 -3 -82
-6 -85 -4 -3 -21 8 -39 25 -90 86 -293 207 -422 251 -81 28 -207 58 -280 68
-57 7 -272 13 -277 8z"/>
<path d="M3577 2843 c-4 -3 -7 -51 -7 -105 l0 -98 -64 0 c-59 0 -81 -9 -86
-34 -3 -17 26 -26 87 -26 l62 0 3 -228 3 -229 27 -35 c15 -19 44 -43 65 -54
81 -39 248 -27 354 25 90 44 72 92 -20 53 -26 -12 -63 -24 -81 -27 -18 -3 -37
-8 -41 -11 -5 -3 -40 -5 -78 -5 -81 0 -140 24 -159 66 -8 17 -12 94 -12 235
l0 210 168 0 c175 0 205 6 186 37 -10 16 -31 18 -183 21 l-171 2 0 89 c0 49
-3 96 -6 105 -6 16 -35 22 -47 9z"/>
<path d="M1970 2645 c-25 -8 -64 -30 -87 -50 -23 -19 -44 -35 -47 -35 -3 0 -6
18 -6 40 l0 40 -63 0 c-67 0 -88 -10 -80 -41 4 -15 14 -19 44 -19 l39 0 0
-244 0 -245 -47 -3 c-44 -3 -48 -5 -48 -28 l0 -25 121 -3 c99 -2 123 0 134 13
20 25 -5 45 -56 45 l-44 0 0 183 0 183 48 52 c73 80 108 93 237 83 24 -1 78
-47 94 -79 11 -21 15 -131 12 -344 l-1 -78 -39 0 c-42 0 -54 -13 -39 -42 7
-15 23 -18 103 -18 106 0 125 5 125 30 0 21 -19 30 -61 30 l-29 0 2 198 c1
178 -1 202 -19 243 -38 83 -89 117 -186 124 -39 3 -79 -1 -107 -10z"/>
<path d="M2778 2646 c-125 -36 -222 -152 -232 -277 -2 -28 7 -102 17 -134 28
-93 145 -195 251 -219 32 -8 139 -9 171 -2 95 20 171 52 205 86 25 25 25 37 1
49 -14 8 -25 6 -46 -10 -46 -37 -160 -70 -237 -70 -104 0 -157 20 -218 81 -45
45 -66 81 -75 133 l-7 37 301 0 300 0 -5 43 c-25 177 -135 282 -306 292 -44 3
-92 -1 -120 -9z m207 -67 c75 -35 139 -105 151 -169 l7 -30 -271 0 -270 0 17
47 c22 63 94 135 157 155 57 19 164 17 209 -3z"/>
</g>
</svg>
